<?xml version="1.0" standalone="no"?>
<!DOCTYPE svg PUBLIC "-//W3C//DTD SVG 20010904//EN"
 "http://www.w3.org/TR/2001/REC-SVG-20010904/DTD/svg10.dtd">
<svg version="1.0" xmlns="http://www.w3.org/2000/svg"
 width="700.000000pt" height="700.000000pt" viewBox="0 0 700.000000 700.000000"
 preserveAspectRatio="xMidYMid meet">
<metadata>
Created by potrace 1.11, written by Peter Selinger 2001-2013
</metadata>
<g transform="translate(0.000000,700.000000) scale(0.100000,-0.100000)"
fill="#000000" stroke="none">
<path d="M326 6286 c18 -79 35 -155 38 -168 2 -12 12 -54 21 -93 9 -38 18 -77
20 -85 2 -8 8 -33 13 -55 6 -22 13 -51 16 -65 2 -14 13 -63 24 -110 11 -47 36
-157 56 -245 20 -88 44 -189 52 -225 9 -36 18 -74 20 -86 2 -11 28 -126 58
-255 30 -129 78 -335 106 -458 l52 -224 -17 -46 c-10 -25 -24 -59 -31 -76 -16
-35 -91 -263 -98 -297 -3 -13 -8 -34 -11 -48 -11 -45 -43 -234 -48 -283 -2
-26 -6 -49 -8 -51 -3 -4 -152 52 -501 188 l-88 35 0 -115 0 -114 32 -13 c18
-8 94 -37 168 -65 74 -28 191 -73 259 -99 l125 -48 2 -67 c3 -101 19 -254 35
-323 4 -22 9 -44 9 -48 0 -4 -136 -7 -302 -6 -167 0 -309 1 -315 0 -10 -1 -13
-29 -13 -105 l0 -104 337 -1 c185 -1 340 -4 344 -7 4 -2 11 -19 14 -37 8 -34
67 -189 104 -271 13 -28 19 -52 14 -57 -9 -9 -47 -24 -518 -203 -126 -49 -245
-95 -262 -103 l-33 -15 0 -114 c0 -113 0 -115 21 -103 12 6 44 19 72 29 83 29
339 129 374 145 17 8 34 15 37 15 7 0 175 64 211 80 11 5 58 23 105 40 47 18
90 34 96 37 7 2 29 -24 50 -58 182 -300 527 -640 870 -857 403 -254 916 -421
1414 -459 164 -12 530 -6 615 11 11 2 47 7 80 10 100 11 338 62 440 93 413
127 709 277 1020 516 136 105 358 321 459 447 63 80 201 279 208 302 3 7 59
-10 138 -40 553 -208 770 -291 779 -297 8 -4 11 32 11 113 l0 120 -27 10 c-81
31 -696 262 -739 278 l-52 18 35 80 c35 82 63 153 67 171 1 6 10 33 21 62 l18
51 326 0 c179 0 332 1 339 1 9 1 12 28 12 101 0 88 -2 100 -17 101 -10 0 -151
0 -314 1 l-297 0 5 31 c2 18 8 57 13 87 11 67 20 163 24 253 2 38 7 72 12 76
5 5 136 57 292 116 l282 108 0 113 c0 63 -3 114 -8 114 -8 0 -151 -53 -187
-69 -11 -5 -87 -35 -170 -67 -82 -31 -165 -63 -183 -72 -43 -19 -42 -21 -55
78 -15 110 -19 135 -22 140 -2 3 -6 25 -10 50 -11 74 -73 279 -121 399 l-46
114 36 156 c19 86 56 246 82 356 25 110 48 211 50 225 3 14 12 52 21 85 8 33
17 69 19 81 2 11 36 160 75 330 39 170 72 316 74 324 2 12 41 181 101 440 3
14 7 32 9 40 2 8 12 52 23 98 l20 84 -27 -7 c-14 -3 -48 -14 -76 -25 -27 -10
-519 -174 -1093 -365 -1016 -338 -1044 -347 -1085 -336 -86 23 -273 69 -307
75 -19 3 -46 8 -60 11 -23 5 -44 8 -130 19 -19 3 -62 8 -95 11 -33 3 -78 8
-100 10 -50 5 -419 6 -460 1 -16 -2 -65 -7 -108 -10 -43 -4 -86 -9 -95 -11 -9
-1 -39 -6 -67 -9 -27 -4 -68 -11 -90 -16 -22 -5 -56 -11 -75 -14 -31 -5 -154
-36 -267 -67 -41 -11 -68 -2 -1155 360 -612 204 -1116 371 -1119 371 -4 0 9
-65 27 -144z"/>
</g>
</svg>
